# xmcd
#
# Track frame offsets:
#	150
#	13417
#	25257
#	34660
#	45290
#	57738
#	69099
#	80555
#	92282
#	101276
#	113963
#	123662
#	135149
#	147987
#	160093
#	171641
#	181490
#	192393
#	204767
#	216063
#	226799
#	238725
#	248394
#	256982
#	268748
#	279544
#	287913
#	298379
#	309296
#	320506
#
# Disc length: 4402 seconds
#
# Revision: 0
# Processed by: cddbd v1.5.2PL0 Copyright (c) Steve Scherf et al.
# Submitted via: dBpowerAMP V4.0
#
DISCID=af11301e
DTITLE=Bobby Helms - Sings To My Special Angel
DYEAR=1900
DGENRE=Country
TTITLE0=My Special Angel
TTITLE1=No Other Way
TTITLE2=A Fool Such As I
TTITLE3=The Magic Song
TTITLE4=Most Of The Time
TTITLE5=Plaything
TTITLE6=If I Only Knew
TTITLE7=My Shoes Keep Walkin' Back To You
TTITLE8=Tonight's The Night
TTITLE9=Far Away Heart
TTITLE10=Sugar Moon
TTITLE11=Just A Little Lonesome
TTITLE12=Fraulein
TTITLE13=Tennessee Rock And Roll
TTITLE14=Jacqueline
TTITLE15=Freedim Loving Guy
TTITLE16=Schoolboy Crush
TTITLE17=Borrowed Dreams
TTITLE18=Hangin' Around
TTITLE19=I Guess I'll Miss The Prom
TTITLE20=Standing At The End Of The World
TTITLE21=Then Came You
TTITLE22=I'm Leaving Now (Long Gone Daddy)
TTITLE23=Love My Lady
TTITLE24=I Don't Owe You A Thing
TTITLE25=Forget About Him
TTITLE26=I Need To Know Now
TTITLE27=The Fool And The Angel
TTITLE28=Captain Santa Claus
TTITLE29=Jingle Bell Rock
EXTD=
EXTT0=
EXTT1=
EXTT2=
EXTT3=
EXTT4=
EXTT5=
EXTT6=
EXTT7=
EXTT8=
EXTT9=
EXTT10=
EXTT11=
EXTT12=
EXTT13=
EXTT14=
EXTT15=
EXTT16=
EXTT17=
EXTT18=
EXTT19=
EXTT20=
EXTT21=
EXTT22=
EXTT23=
EXTT24=
EXTT25=
EXTT26=
EXTT27=
EXTT28=
EXTT29=
PLAYORDER=
